<mxfile host="app.diagrams.net" agent="Mozilla/5.0 (Macintosh; Intel Mac OS X 10_15_7) AppleWebKit/537.36 (KHTML, like Gecko) Chrome/129.0.0.0 Safari/537.36" version="24.8.2">
  <diagram name="Page-1" id="_voRB7Y6iMDA6GGgN8ft">
    <mxGraphModel dx="661" dy="411" grid="1" gridSize="10" guides="1" tooltips="1" connect="1" arrows="1" fold="1" page="1" pageScale="1" pageWidth="827" pageHeight="1169" math="0" shadow="0">
      <root>
        <mxCell id="0" />
        <mxCell id="1" parent="0" />
        <mxCell id="WtHiP-zUXW_M2bAxR0jx-1" value="Vitalik Buterin&lt;br&gt;&lt;div&gt;Principal créateur et cerveau derrière Ethereum&lt;br&gt;&lt;/div&gt;" style="rounded=1;whiteSpace=wrap;html=1;" vertex="1" parent="1">
          <mxGeometry x="130" y="180" width="160" height="50" as="geometry" />
        </mxCell>
        <mxCell id="WtHiP-zUXW_M2bAxR0jx-2" value="&lt;meta charset=&quot;utf-8&quot;&gt;&lt;span style=&quot;color: rgb(0, 0, 0); font-family: Helvetica; font-size: 12px; font-style: normal; font-variant-ligatures: normal; font-variant-caps: normal; font-weight: 400; letter-spacing: normal; orphans: 2; text-align: center; text-indent: 0px; text-transform: none; widows: 2; word-spacing: 0px; -webkit-text-stroke-width: 0px; white-space: normal; background-color: rgb(251, 251, 251); text-decoration-thickness: initial; text-decoration-style: initial; text-decoration-color: initial; display: inline !important; float: none;&quot;&gt;Ethereum&lt;/span&gt;&lt;div style=&quot;forced-color-adjust: none; color: rgb(0, 0, 0); font-family: Helvetica; font-size: 12px; font-style: normal; font-variant-ligatures: normal; font-variant-caps: normal; font-weight: 400; letter-spacing: normal; orphans: 2; text-align: center; text-indent: 0px; text-transform: none; widows: 2; word-spacing: 0px; -webkit-text-stroke-width: 0px; white-space: normal; background-color: rgb(251, 251, 251); text-decoration-thickness: initial; text-decoration-style: initial; text-decoration-color: initial;&quot;&gt;2014&lt;/div&gt;" style="ellipse;whiteSpace=wrap;html=1;" vertex="1" parent="1">
          <mxGeometry x="354" y="50" width="120" height="80" as="geometry" />
        </mxCell>
        <mxCell id="WtHiP-zUXW_M2bAxR0jx-3" value="Gavin Wood&lt;div&gt;Co-créateur et principal développeur technique.&lt;br&gt;&lt;/div&gt;" style="rounded=1;whiteSpace=wrap;html=1;" vertex="1" parent="1">
          <mxGeometry x="340" y="180" width="170" height="50" as="geometry" />
        </mxCell>
        <mxCell id="WtHiP-zUXW_M2bAxR0jx-4" value="&lt;span style=&quot;background-color: initial;&quot;&gt;- Auteur du &lt;/span&gt;&lt;strong style=&quot;background-color: initial;&quot;&gt;langage de programmation Solidity&lt;/strong&gt;&lt;span style=&quot;background-color: initial;&quot;&gt;&amp;nbsp;&lt;/span&gt;&lt;br&gt;&lt;span style=&quot;background-color: initial;&quot;&gt;- Il a écrit le &lt;/span&gt;&lt;strong style=&quot;background-color: initial;&quot;&gt;Livre jaune d&#39;Ethereum&lt;/strong&gt;&lt;span style=&quot;background-color: initial;&quot;&gt;, la spécification technique officielle du protocole.&lt;/span&gt;&lt;div&gt;&lt;span style=&quot;background-color: initial;&quot;&gt;- Fondateur de&amp;nbsp;&lt;/span&gt;&lt;strong style=&quot;background-color: initial;&quot;&gt;Parity Technologies&lt;/strong&gt;&lt;span style=&quot;background-color: initial;&quot;&gt; et lancé &lt;/span&gt;&lt;strong style=&quot;background-color: initial;&quot;&gt;Polkadot&lt;/strong&gt;&lt;/div&gt;" style="rounded=0;whiteSpace=wrap;html=1;align=left;" vertex="1" parent="1">
          <mxGeometry x="323.75" y="260" width="202.5" height="130" as="geometry" />
        </mxCell>
        <mxCell id="WtHiP-zUXW_M2bAxR0jx-6" value="- Contributeur et cofondateur du magazine&amp;nbsp;&lt;strong&gt;Bitcoin Magazine&lt;/strong&gt;&lt;div&gt;&lt;strong&gt;- D&#39;apps&lt;/strong&gt;&lt;/div&gt;" style="rounded=0;whiteSpace=wrap;html=1;align=left;" vertex="1" parent="1">
          <mxGeometry x="108.75" y="260" width="202.5" height="130" as="geometry" />
        </mxCell>
        <mxCell id="WtHiP-zUXW_M2bAxR0jx-7" value="&lt;div&gt;Joseph Lubin&lt;br&gt;&lt;/div&gt;&lt;div&gt;Co-fondateur et entrepreneur&lt;br&gt;&lt;/div&gt;" style="rounded=1;whiteSpace=wrap;html=1;" vertex="1" parent="1">
          <mxGeometry x="556.25" y="180" width="170" height="50" as="geometry" />
        </mxCell>
        <mxCell id="WtHiP-zUXW_M2bAxR0jx-8" value="- Gestion des aspects business et organisationnels d’Ethereum.&amp;nbsp;&lt;div&gt;- Fondateur de&amp;nbsp;&lt;strong&gt;ConsenSys&lt;/strong&gt;, une entreprise qui développe des applications et des infrastructures pour Ethereum&lt;br&gt;&lt;/div&gt;" style="rounded=0;whiteSpace=wrap;html=1;align=left;" vertex="1" parent="1">
          <mxGeometry x="540" y="260" width="202.5" height="130" as="geometry" />
        </mxCell>
        <mxCell id="WtHiP-zUXW_M2bAxR0jx-9" value="&lt;div&gt;- Un des premiers investisseurs dans Ethereum.&lt;/div&gt;&lt;div&gt;- Fondateur de&amp;nbsp;&lt;strong&gt;Decentral&lt;/strong&gt;, une société spécialisée dans la blockchain basée à Toronto, ainsi que &lt;strong&gt;Jaxx&lt;/strong&gt;, un portefeuille de crypto-monnaies.&lt;br&gt;&lt;/div&gt;" style="rounded=0;whiteSpace=wrap;html=1;align=left;" vertex="1" parent="1">
          <mxGeometry x="770" y="260" width="202.5" height="130" as="geometry" />
        </mxCell>
        <mxCell id="WtHiP-zUXW_M2bAxR0jx-10" value="&lt;div&gt;Anthony Di Iorio&lt;/div&gt;&lt;div&gt;&lt;span style=&quot;background-color: initial;&quot;&gt;Co-fondateur et premier investisseur&lt;/span&gt;&lt;/div&gt;" style="rounded=1;whiteSpace=wrap;html=1;" vertex="1" parent="1">
          <mxGeometry x="786.25" y="180" width="170" height="50" as="geometry" />
        </mxCell>
        <mxCell id="WtHiP-zUXW_M2bAxR0jx-11" value="&lt;div&gt;- Mathématicien et entrepreneur&lt;/div&gt;&lt;div&gt;- Il a contribué à la structure juridique et à l’organisation de l&#39;ICO d’Ethereum.&amp;nbsp;&lt;/div&gt;&lt;div&gt;- Il a quitté le projet après un désaccord sur la gouvernance du projet (il voulait une structure commerciale, tandis que d&#39;autres souhaitaient rester non-profit).&amp;nbsp;&lt;/div&gt;&lt;div&gt;- Fondateur de&amp;nbsp;&lt;strong&gt;IOHK&lt;/strong&gt;, l&#39;organisation derrière &lt;strong&gt;Cardano.&lt;/strong&gt;&lt;br&gt;&lt;/div&gt;" style="rounded=0;whiteSpace=wrap;html=1;align=left;" vertex="1" parent="1">
          <mxGeometry x="1000" y="260" width="202.5" height="190" as="geometry" />
        </mxCell>
        <mxCell id="WtHiP-zUXW_M2bAxR0jx-13" value="&lt;div&gt;&amp;nbsp;-Il a travaillé sur la mise en place de la &lt;strong&gt;Fondation Ethereum&lt;/strong&gt; en Suisse et a contribué à gérer les premiers aspects organisationnels du projet.&amp;nbsp;&lt;/div&gt;&lt;div&gt;- Cofondateur de &lt;strong&gt;Bitcoin Magazine&lt;/strong&gt; avec Buterin.&lt;br&gt;&lt;/div&gt;" style="rounded=0;whiteSpace=wrap;html=1;align=left;" vertex="1" parent="1">
          <mxGeometry x="1230" y="260" width="202.5" height="110" as="geometry" />
        </mxCell>
        <mxCell id="WtHiP-zUXW_M2bAxR0jx-15" value="&lt;div&gt;&lt;span style=&quot;background-color: initial;&quot;&gt;Charles Hoskinson&lt;/span&gt;&lt;/div&gt;&lt;div&gt;&lt;span style=&quot;background-color: initial;&quot;&gt;Co-fondateur et premier CEO&lt;/span&gt;&lt;br&gt;&lt;/div&gt;" style="rounded=1;whiteSpace=wrap;html=1;" vertex="1" parent="1">
          <mxGeometry x="1016.25" y="180" width="170" height="50" as="geometry" />
        </mxCell>
        <mxCell id="WtHiP-zUXW_M2bAxR0jx-16" value="&lt;div&gt;&lt;span style=&quot;background-color: initial;&quot;&gt;Mihai Alisie&lt;/span&gt;&lt;/div&gt;&lt;div&gt;Co-fondateur et co-architecte de la structure légale.&lt;br&gt;&lt;/div&gt;" style="rounded=1;whiteSpace=wrap;html=1;" vertex="1" parent="1">
          <mxGeometry x="1246.25" y="180" width="170" height="50" as="geometry" />
        </mxCell>
      </root>
    </mxGraphModel>
  </diagram>
</mxfile>
